# xmcd
#
# Track frame offsets: 
#        150
#        9355
#        22187
#        33012
#        45525
#        53115
#        59205
#        71450
#        82597
#        90092
#        101117
#        114205
#        124832
#        138642
#        151995
#
# Disc length: 2193 seconds
#
# Revision: 3
# Processed by: cddbd v1.5.2PL0 Copyright (c) Steve Scherf et al.
# Submitted via: ExactAudioCopyFreeDBPlugin 1.0
#
DISCID=b6088f0f
DTITLE=The Kentucky Colonels (with Clarence and Roland White) - Appalach
DTITLE=ian Swing! (with Bonus Tracks)
DYEAR=2005
DGENRE=Bluegrass
TTITLE0=Clinch Mountain Backstep
TTITLE1=nine Pound Hammer
TTITLE2=Listen to the Mocking Bird
TTITLE3=Wild Bill Jones
TTITLE4=Billy in the Low Ground
TTITLE5=Lee Highway Blues
TTITLE6=I Am a Pilgrim
TTITLE7=The Prisoner's Song
TTITLE8=Sally Goodin
TTITLE9=Faded Love
TTITLE10=John Henry
TTITLE11=Flat Fork
TTITLE12=Pickin' Flat
TTITLE13=A Fool Such As I
TTITLE14=Black Ridge Ramble
EXTD=
EXTT0=
EXTT1=
EXTT2=
EXTT3=
EXTT4=
EXTT5=
EXTT6=
EXTT7=
EXTT8=
EXTT9=
EXTT10=
EXTT11=
EXTT12=
EXTT13=
EXTT14=
PLAYORDER=
